# xmcd
#
# Track frame offsets: 
#        150
#        28564
#        52127
#        76986
#        98544
#        124080
#        151799
#        177336
#
# Disc length: 2722 seconds
#
# Revision: 0
# Processed by: cddbd v1.5.2PL0 Copyright (c) Steve Scherf et al.
# Submitted via: ExactAudioCopy v1.2
#
DISCID=580aa008
DTITLE=Hồng Hạnh - Quê Mình
DYEAR=1900
DGENRE=Country
TTITLE0=Vỗ bến Lam chiều
TTITLE1=Thương ơi điệu ví
TTITLE2=Giận mà thương
TTITLE3=Em yêu anh như yêu câu ví dặm
TTITLE4=Lời cỏ may
TTITLE5=Nỗi niềm nội ngoại
TTITLE6=Nhớ dòng sông tuổi thơ
TTITLE7=Tìm về lời ru
EXTD=
EXTT0=
EXTT1=
EXTT2=
EXTT3=
EXTT4=
EXTT5=
EXTT6=
EXTT7=
PLAYORDER=
